<svg width="400" height="400" viewBox="0 0 400 400" fill="none" xmlns="http://www.w3.org/2000/svg">
<rect width="400" height="400" rx="48" fill="black"/>
<path d="M363.638 217.946C353.644 222.453 343.356 226.177 332.774 229.116C322.388 231.86 311.904 234.505 301.322 237.053C300.93 237.053 299.852 237.249 298.088 237.641C296.521 238.033 294.855 238.522 293.091 239.11C291.328 239.502 289.662 239.894 288.094 240.286C286.722 240.482 286.037 240.58 286.037 240.58C283.685 239.796 281.333 239.796 278.982 240.58C276.826 241.168 274.573 241.952 272.221 242.932C270.066 243.911 267.714 244.695 265.167 245.283C262.619 245.675 259.778 245.185 256.642 243.813C256.054 243.618 254.976 243.813 253.409 244.401C251.841 244.793 250.273 245.381 248.706 246.165C247.138 246.949 245.766 247.929 244.59 249.104C243.415 250.084 242.729 250.966 242.533 251.75L244.296 253.514C244.492 254.102 244.198 255.277 243.415 257.041C242.631 258.609 241.749 260.372 240.769 262.332C239.789 264.096 238.711 265.761 237.536 267.329C236.556 268.897 235.772 269.877 235.184 270.269C235.38 272.032 234.89 274.188 233.714 276.735C232.735 279.087 231.559 281.634 230.187 284.378C229.011 287.121 227.835 289.963 226.66 292.902C225.68 295.842 225.19 298.585 225.19 301.133C225.19 301.917 225.288 302.701 225.484 303.484C225.68 304.268 225.68 304.954 225.484 305.542L225.19 306.13C223.23 307.698 221.761 309.755 220.781 312.303C219.997 314.654 219.311 317.202 218.723 319.945C218.331 322.493 217.743 325.04 216.959 327.588C216.372 330.135 215.294 332.389 213.726 334.349V334.643L213.432 334.937C210.885 336.112 208.729 336.308 206.965 335.524C205.398 334.741 203.928 333.565 202.556 331.997C201.38 330.429 200.205 328.666 199.029 326.706C198.049 324.55 196.873 322.689 195.501 321.121C194.718 318.574 194.424 316.418 194.62 314.654C194.816 312.695 195.697 310.735 197.265 308.775L197.853 308.481C196.677 306.914 196.285 305.542 196.677 304.366C197.265 302.994 197.853 301.721 198.441 300.545C199.225 299.369 199.715 298.193 199.911 297.018C200.303 295.646 199.715 294.078 198.147 292.314L198.735 291.727C201.282 289.179 202.654 286.338 202.85 283.202C203.046 279.871 202.85 276.539 202.262 273.208C201.87 269.877 201.576 266.545 201.38 263.214C201.38 259.882 202.36 256.845 204.32 254.102L204.614 253.808C204.81 252.632 204.026 251.064 202.262 249.104C200.499 247.145 199.127 245.675 198.147 244.695C196.971 247.635 195.403 249.202 193.444 249.398C191.68 249.398 189.623 249.104 187.271 248.517C185.115 247.929 182.96 247.439 180.804 247.047C178.649 246.655 176.689 247.341 174.925 249.104L173.456 250.28L172.868 249.104C172.084 247.341 171.006 246.459 169.634 246.459C168.458 246.263 167.087 246.263 165.519 246.459C163.167 246.655 160.914 246.851 158.758 247.047C156.799 247.047 154.741 247.047 152.585 247.047C151.41 246.067 150.038 245.675 148.47 245.871C147.098 246.067 145.629 246.263 144.061 246.459C142.689 246.655 141.22 246.753 139.652 246.753C138.28 246.557 136.908 245.675 135.537 244.107C134.165 244.695 132.009 247.047 129.07 251.162C126.13 255.081 122.995 259.491 119.664 264.39C116.528 269.289 113.491 274.09 110.551 278.793C107.808 283.3 105.946 286.436 104.966 288.199C104.182 289.375 103.203 290.845 102.027 292.608C101.047 294.372 99.9692 296.234 98.7935 298.193C97.6177 299.957 96.5399 301.721 95.5601 303.484C94.5802 305.052 93.7964 306.424 93.2085 307.6L93.5024 308.481C93.5024 310.441 93.2085 312.009 92.6206 313.185C92.0327 314.164 91.2489 315.046 90.269 315.83C89.4852 316.418 88.7013 317.006 87.9175 317.594C87.1336 317.986 86.4478 318.476 85.8599 319.063C84.2922 319.063 83.1164 319.455 82.3325 320.239C81.5487 321.023 80.8628 321.905 80.2749 322.885C79.687 323.865 79.0011 324.746 78.2173 325.53C77.2375 326.314 75.7677 326.706 73.8081 326.706C73.0243 327.686 72.5343 328.372 72.3384 328.764C72.1424 329.156 71.8485 329.939 71.4565 331.115C71.0646 332.487 70.7707 333.467 70.5747 334.055C70.1828 334.643 69.8888 335.035 69.6929 335.23C69.3009 335.622 68.909 335.916 68.5171 336.112C68.1252 336.504 67.7332 336.994 67.3413 337.582C66.1655 337.778 65.2837 337.582 64.6958 336.994C64.1079 336.406 63.52 335.622 62.9321 334.643C62.3442 333.859 61.8543 332.977 61.4624 331.997C60.8745 331.213 60.1886 330.625 59.4048 330.233L59.6987 329.352C63.618 317.79 68.3211 306.816 73.8081 296.43C79.2951 285.848 85.174 275.364 91.4448 264.978C91.8368 264.194 92.1307 263.41 92.3267 262.626C92.5226 261.842 92.8166 261.058 93.2085 260.274C94.1883 257.727 95.1681 255.277 96.1479 252.926C97.3237 250.574 98.6955 248.321 100.263 246.165C101.635 244.009 102.811 241.952 103.791 239.992C104.966 238.033 106.044 235.975 107.024 233.819L106.436 233.231C100.165 228.136 94.6782 222.943 89.9751 217.652C85.4679 212.165 81.1567 205.993 77.0415 199.134C76.0617 197.37 75.0819 195.606 74.1021 193.843C73.1222 191.883 72.1424 190.119 71.1626 188.552L70.8687 188.258C70.8687 184.339 71.1626 180.419 71.7505 176.5C72.3384 172.581 74.1021 169.151 77.0415 166.212L77.3354 165.918V165.624C78.3153 163.664 79.3931 162.195 80.5688 161.215C81.7446 160.235 82.9204 159.451 84.0962 158.863C85.4679 158.275 86.8397 157.785 88.2114 157.394C89.5832 156.806 90.9549 155.924 92.3267 154.748V154.454C96.8338 152.494 101.243 150.829 105.554 149.457C109.865 148.085 114.471 148.673 119.37 151.221L119.958 150.927C121.721 149.947 123.877 149.457 126.424 149.457C128.972 149.261 131.225 149.163 133.185 149.163C134.361 149.751 135.537 150.535 136.712 151.515C138.084 152.299 139.358 153.082 140.534 153.866C141.905 154.65 143.277 155.238 144.649 155.63C146.021 156.022 147.294 155.924 148.47 155.336H148.764V155.042C150.724 153.082 152.292 150.339 153.467 146.812C154.643 143.088 155.819 139.169 156.995 135.054C158.366 130.938 159.836 126.921 161.404 123.002C162.972 118.887 165.127 115.359 167.871 112.42C167.871 111.832 168.263 110.558 169.046 108.599C169.83 106.443 170.614 104.091 171.398 101.544C172.378 98.8005 173.064 96.1549 173.456 93.6074C174.043 90.8639 174.043 88.6104 173.456 86.8467L176.101 87.1406C176.885 86.3568 177.375 85.6709 177.571 85.083L177.277 84.2012C176.493 83.4173 176.199 82.4375 176.395 81.2617C176.591 80.0859 176.885 79.0081 177.277 78.0283H176.983L176.689 76.8525C177.277 76.6566 178.355 76.2646 179.922 75.6768C181.686 75.0889 183.45 74.403 185.213 73.6191C186.977 72.8353 188.545 72.1494 189.917 71.5615C191.484 70.9736 192.366 70.6797 192.562 70.6797C195.306 72.2474 196.775 74.0111 196.971 75.9707C197.363 77.9303 197.265 80.2819 196.677 83.0254C196.481 84.3971 196.383 85.5729 196.383 86.5527C196.579 87.3366 196.677 88.3164 196.677 89.4922C196.677 91.4518 196.187 93.9014 195.208 96.8408C194.228 99.5843 193.052 102.524 191.68 105.659C190.504 108.795 189.133 111.734 187.565 114.478C185.997 117.221 184.625 119.475 183.45 121.238V123.002C183.45 127.117 182.862 131.428 181.686 135.936C180.51 140.247 179.041 144.558 177.277 148.869C175.513 153.18 173.554 157.394 171.398 161.509C169.438 165.624 167.479 169.543 165.519 173.267C164.147 175.618 162.678 178.362 161.11 181.497C159.542 184.437 157.974 187.474 156.407 190.609C155.035 193.745 153.761 196.978 152.585 200.31C151.606 203.445 150.92 206.286 150.528 208.834V209.128L143.179 222.943C143.963 223.923 145.139 224.805 146.707 225.589C148.47 226.177 150.234 226.765 151.998 227.353C153.957 227.94 155.819 228.43 157.583 228.822C159.542 229.018 161.208 229.116 162.58 229.116C164.735 229.116 166.499 229.312 167.871 229.704C169.438 229.9 171.006 230.88 172.574 232.644L173.162 233.231H173.75C175.317 232.84 176.689 232.644 177.865 232.644C179.041 232.644 180.412 232.644 181.98 232.644C183.548 233.035 185.017 233.133 186.389 232.938C187.957 232.742 189.525 232.546 191.092 232.35L190.798 234.407C191.778 235.387 192.562 236.073 193.15 236.465C194.13 234.897 195.306 233.329 196.677 231.762C197.461 232.938 198.147 233.819 198.735 234.407C199.323 234.015 200.009 233.231 200.792 232.056C201.772 230.88 202.458 230.292 202.85 230.292L203.144 229.998L203.438 230.292C206.965 231.468 210.199 231.86 213.138 231.468C216.078 231.076 219.311 230.88 222.838 230.88C223.426 229.508 224.21 228.43 225.19 227.646C226.366 226.863 227.346 226.079 228.129 225.295C229.109 224.315 229.697 223.335 229.893 222.355C230.089 221.376 229.599 220.004 228.423 218.24L228.129 217.652C228.129 217.652 228.423 217.064 229.011 215.889C229.795 214.713 230.579 213.439 231.363 212.067C232.147 210.5 232.833 209.128 233.42 207.952C234.204 206.776 234.694 205.993 234.89 205.601C238.809 199.134 242.239 192.569 245.178 185.906C248.118 179.048 249.587 171.797 249.587 164.154V162.097C249.979 161.901 250.371 161.803 250.763 161.803C253.703 160.627 255.27 159.059 255.466 157.1C255.662 154.944 255.564 152.69 255.172 150.339C254.78 147.987 254.78 145.636 255.172 143.284C255.76 140.933 257.818 138.875 261.345 137.111L261.933 136.817L262.227 136.229C263.403 133.29 264.383 130.351 265.167 127.411C266.146 124.276 267.224 121.238 268.4 118.299C272.123 109.48 274.867 99.9762 276.63 89.7861C277.022 87.4346 277.904 85.377 279.276 83.6133C280.844 81.6536 282.411 79.792 283.979 78.0283C285.547 76.0687 286.918 74.109 288.094 72.1494C289.466 69.9938 290.152 67.6423 290.152 65.0947C290.152 63.527 289.956 62.4492 289.564 61.8613V60.9795L290.152 60.6855C294.071 58.7259 297.109 56.2764 299.264 53.3369C301.42 50.3975 302.498 46.6742 302.498 42.167C302.498 41.5791 302.4 40.5013 302.204 38.9336C302.204 37.3659 302.008 36.3861 301.616 35.9941C303.379 34.8184 305.241 33.2507 307.201 31.291L307.789 31.585C311.512 34.3285 313.765 37.1699 314.549 40.1094C315.529 42.8529 315.725 45.6943 315.137 48.6338C314.745 51.5732 314.059 54.6107 313.08 57.7461C312.1 60.8815 311.61 64.1149 311.61 67.4463L311.316 67.7402C308.376 72.8353 306.025 78.6162 304.261 85.083C302.498 91.5498 301.616 97.8206 301.616 103.896C299.46 103.896 298.088 104.385 297.5 105.365C297.109 106.345 296.717 107.619 296.325 109.187C296.129 110.558 295.737 112.028 295.149 113.596C294.757 115.163 293.581 116.535 291.622 117.711L292.209 118.593C292.209 118.985 292.209 119.279 292.209 119.475C292.405 119.671 292.503 119.965 292.503 120.356C292.503 121.532 292.209 122.61 291.622 123.59C291.034 124.374 290.446 125.256 289.858 126.235C289.27 127.019 288.878 127.901 288.682 128.881C288.682 129.861 289.172 130.938 290.152 132.114C290.936 133.29 291.426 133.976 291.622 134.172H288.388C285.253 140.247 282.411 146.42 279.864 152.69C277.316 158.961 274.965 165.33 272.809 171.797C271.045 177.284 269.184 182.673 267.224 187.964C265.264 193.255 262.913 198.448 260.169 203.543V204.425C261.933 207.756 262.031 210.402 260.463 212.361C259.092 214.321 257.524 216.085 255.76 217.652C254.193 219.024 253.115 220.396 252.527 221.768C251.939 223.139 253.311 224.903 256.642 227.059C259.19 224.511 261.541 223.629 263.697 224.413C265.852 225.197 268.498 225.981 271.633 226.765C272.221 226.177 272.711 225.687 273.103 225.295C273.691 224.707 274.573 224.609 275.749 225.001C275.944 225.197 276.14 225.393 276.336 225.589C276.532 225.589 276.728 225.687 276.924 225.883C278.1 224.119 279.178 223.139 280.158 222.943C281.138 222.747 282.117 222.845 283.097 223.237C284.077 223.629 285.057 224.021 286.037 224.413C287.016 224.805 287.996 224.707 288.976 224.119C289.564 223.727 289.956 223.139 290.152 222.355C290.348 221.376 290.642 220.494 291.034 219.71C293.973 222.649 296.423 224.119 298.382 224.119C300.538 223.923 302.498 223.335 304.261 222.355C306.221 221.18 308.083 220.102 309.846 219.122C311.806 218.142 314.059 218.24 316.607 219.416C318.763 219.416 320.918 219.22 323.074 218.828C325.425 218.24 327.679 217.75 329.834 217.358C335.517 216.379 341.102 215.595 346.589 215.007C352.076 214.419 357.661 214.615 363.344 215.595L363.638 217.946ZM137.594 161.509C135.831 161.509 134.165 161.607 132.597 161.803C131.225 161.999 129.952 162.685 128.776 163.86C128.58 163.664 128.384 163.566 128.188 163.566C120.545 161.411 113.197 161.803 106.142 164.742C99.0874 167.682 93.0125 171.895 87.9175 177.382L87.3296 179.733C87.1336 180.321 87.0356 181.007 87.0356 181.791C87.0356 182.379 87.0356 182.869 87.0356 183.261C87.0356 186.984 87.9175 190.413 89.6812 193.549C90.8569 195.9 92.2287 197.86 93.7964 199.428C95.5601 200.995 97.4217 202.465 99.3813 203.837C101.537 205.209 103.595 206.58 105.554 207.952C107.71 209.324 109.669 210.99 111.433 212.949C115.352 212.949 117.998 211.969 119.37 210.01C120.937 207.854 122.015 205.405 122.603 202.661C123.387 199.722 124.171 196.782 124.955 193.843C125.738 190.903 127.404 188.552 129.952 186.788C130.148 186.788 130.246 186.788 130.246 186.788C130.246 186.592 130.344 186.494 130.54 186.494C129.756 184.535 129.756 182.575 130.54 180.615C131.519 178.656 132.597 176.696 133.773 174.736C135.145 172.777 136.222 170.719 137.006 168.563C137.986 166.408 138.182 164.056 137.594 161.509Z" fill="white"/>
</svg>
